<?xml version="1.0" encoding="utf-8"?>
<!-- Generator: Adobe Illustrator 17.1.0, SVG Export Plug-In . SVG Version: 6.00 Build 0)  -->
<!DOCTYPE svg PUBLIC "-//W3C//DTD SVG 1.1//EN" "http://www.w3.org/Graphics/SVG/1.1/DTD/svg11.dtd">
<svg version="1.1" id="Layer_1" xmlns="http://www.w3.org/2000/svg" xmlns:xlink="http://www.w3.org/1999/xlink" x="0px" y="0px"
	 viewBox="0 0 190.7 71.6" style="enable-background:new 0 0 190.7 71.6;" xml:space="preserve">
<style type="text/css">
	.st0{fill:#6767B2;}
	.st1{fill:url(#SVGID_1_);}
	.st2{fill:url(#SVGID_2_);}
	.st3{fill:url(#SVGID_3_);}
	.st4{fill:#FFFFFF;}
</style>
<g>
	<path class="st0" d="M69.6,61.6h0.2C69.8,61.6,69.7,61.6,69.6,61.6L69.6,61.6z"/>
	<g>
		<linearGradient id="SVGID_1_" gradientUnits="userSpaceOnUse" x1="-6.0557" y1="30.8145" x2="210.2079" y2="30.8145">
			<stop  offset="0" style="stop-color:#6767B2"/>
			<stop  offset="1" style="stop-color:#5BABC9"/>
		</linearGradient>
		<path class="st1" d="M61.6,61L61,60.9l-0.5-0.2c-0.6-0.2-1.3-0.5-2-0.7c-0.7-0.4-1.3-0.7-2-1.1c-0.7-0.3-1.2-0.8-1.8-1.2
			c-0.6-0.4-1.1-0.8-1.6-1.2c-0.4-0.4-0.9-0.8-1.3-1.2c-2.8-0.1-5.5-0.2-5.7-0.3c-0.5-0.2-0.7-0.4-0.7-0.6c0-0.1-0.3-0.7-0.3-3.1
			V31.6c0-3.5-1.3-6.5-3.9-8.9c-2.6-2.4-5.9-3.6-9.9-3.6c-2.7,0-5.5,0.6-8.3,1.9c-2.1,0.9-4.2,2.2-6.5,3.8V1.5C16.7,0.7,16,0,15.2,0
			h-3.1c-0.3,0-0.5,0.1-0.8,0.2c-1.5,0.9-2.9,1.6-4.2,2C5.7,2.6,3.8,3,1.3,3.4C0.6,3.5,0,4.1,0,4.9v3.4c0,0.8,0.7,1.5,1.5,1.5h5.3
			v39.1c0,4.2-0.2,5.1-0.3,5.3c-0.1,0.3-0.2,0.5-0.3,0.5c-0.4,0.2-1.3,0.5-3.5,0.5H1.5c-0.8,0-1.5,0.7-1.5,1.5v3.4
			c0,0.8,0.7,1.5,1.5,1.5h20.7c0.8,0,1.5-0.7,1.5-1.5v-3.4c0-0.8-0.7-1.5-1.5-1.5h-1.6c-2.3,0-3-0.2-3.1-0.3
			c-0.4-0.1-0.5-0.3-0.5-0.4c0,0-0.2-0.5-0.2-2.3V33c2.3-1.8,4.4-3.3,6.5-4.2c2.2-1,4.3-1.5,6.2-1.5c1.6,0,2.9,0.4,3.9,1.1
			c1,0.7,1.6,1.7,1.9,2.9c0.1,0.4,0.3,1.8,0.3,5.5v13.6c0,2.8-0.2,3.6-0.3,3.8c-0.2,0.5-0.4,0.6-0.6,0.7c-0.1,0-0.7,0.3-3.2,0.3
			h-1.5c-0.8,0-1.5,0.7-1.5,1.5v3.4c0,0.8,0.7,1.5,1.5,1.5l34.6-0.1c-0.6,0-1.3-0.2-1.9-0.3C62.3,61.1,61.9,61.1,61.6,61z"/>
		<linearGradient id="SVGID_2_" gradientUnits="userSpaceOnUse" x1="-6.0573" y1="38.2784" x2="210.2087" y2="38.2784">
			<stop  offset="0" style="stop-color:#6767B2"/>
			<stop  offset="1" style="stop-color:#5BABC9"/>
		</linearGradient>
		<path class="st2" d="M175.8,20.9l-1.6-0.6l-0.7,2c-0.7,1.8-1.4,3-2.3,3.6c-0.7,0.5-1.7,0.5-2.9,0.2c-1.6-2.2-3.6-4.1-5.9-5.4
			c-3.1-1.7-6.8-2.6-10.9-2.6c-4.1,0-7.8,0.9-11,2.7c-3.3,1.8-5.8,4.4-7.6,7.7c-1.8,3.3-2.7,7.1-2.7,11.3c0,1.2,0.1,2.3,0.2,3.5
			c0.4-0.2,0.8-0.2,1.2-0.2c0.2,0,0.3,0,0.5,0c1.8,0.3,3.2,1.2,4.2,2.5c0.4,0.4,0.7,0.9,1,1.4c0.3,0.4,0.6,0.9,0.9,1.3
			c0.7,1.1,1.3,2.2,1.9,3.3l1.9,3.2c0.7,1.2,1.4,2.4,2,3.5c0.1-0.3,0.1-0.6,0.2-0.8c0.1-0.4,0.2-0.8,0.3-1.2
			c0.1-0.3,0.1-0.6,0.2-0.9c0.1-0.5,0.2-1,0.3-1.5c0.1-0.4,0.1-0.8,0.2-1.3c-0.3-0.3-0.7-0.6-1-1c-2-2.6-3.1-6.5-3.1-11.6
			c0-5.3,1.2-9.3,3.6-12c1.8-2.1,4-3.1,6.6-3.1c2,0,3.8,0.5,5.3,1.6c1.6,1.1,2.7,2.5,3.5,4.4c0.5,1.1,0.8,2.3,1.1,3.5
			c0.1-0.1,0.2-0.1,0.3-0.2c0.4-0.2,0.8-0.3,1.2-0.3c0.4,0,0.7,0.1,1.1,0.2c0.5,0.2,1,0.5,1.5,0.8c0.6,0.5,1,1.1,1.2,1.8
			c0.1,0.3,0.2,0.6,0.2,0.9c0.1,0.5,0.1,1-0.1,1.4c0,0.8,0,1.6,0,2.4c-0.1,0.8-0.1,1.5-0.1,2.3l-0.1,1.5c0,0.5-0.1,1-0.1,1.5
			c-0.1,0.7-0.2,1.4-0.2,2c0,0.4-0.1,0.7-0.1,1.1c0.1-0.1,0.1-0.1,0.2-0.2c0.4-0.3,0.8-0.6,1.3-0.9c0.5-0.3,1-0.5,1.5-0.6
			c0.6-0.2,1.2-0.2,1.8-0.3l0.2,0c0.1,0,0.2,0,0.3,0c0.9-2.5,1.4-5.3,1.4-8.3c0-1.9-0.2-3.7-0.5-5.4c0.6-0.1,1.2-0.3,1.7-0.6
			c2.2-1.1,3.9-3.1,5-6.2C179.7,24.3,178.8,22,175.8,20.9z"/>
		<linearGradient id="SVGID_3_" gradientUnits="userSpaceOnUse" x1="-6.0557" y1="30.8145" x2="210.2076" y2="30.8145">
			<stop  offset="0" style="stop-color:#6767B2"/>
			<stop  offset="1" style="stop-color:#5BABC9"/>
		</linearGradient>
		<path class="st3" d="M131.9,55.3h-1.4c-2.3,0-3-0.3-3.1-0.3c-0.4-0.2-0.6-0.5-0.9-1c0-0.1-0.2-0.7-0.2-3.3V1.5
			c0-0.8-0.7-1.5-1.5-1.5h-3c-0.3,0-0.5,0.1-0.7,0.2c-3.2,1.8-6.6,2.9-10,3.2c-0.8,0.1-1.4,0.7-1.4,1.5v3.3c0,0.8,0.7,1.5,1.5,1.5
			h5.3v40.7c0,2.6-0.2,3.4-0.3,3.6c-0.2,0.4-0.4,0.7-0.8,0.9c-0.2,0.1-0.8,0.4-2.2,0.4h-5H107c-2.3,0-3-0.3-3.1-0.4
			c-0.4-0.2-0.6-0.5-0.9-1c0-0.1-0.2-0.7-0.2-3.3V1.5c0-0.8-0.7-1.5-1.5-1.5h-3c-0.3,0-0.5,0.1-0.7,0.2c-3.2,1.8-6.6,2.9-10,3.2
			c-0.8,0.1-1.4,0.7-1.4,1.5v3.3c0,0.8,0.7,1.5,1.5,1.5H93v40.7c0,2.6-0.2,3.4-0.3,3.6c-0.2,0.4-0.4,0.7-0.8,0.9
			c-0.2,0.1-0.8,0.4-2.2,0.4h-4.4c1-1,2.1-2.1,3.1-3.4c0.3-0.3,0.4-0.7,0.3-1.1c0-0.4-0.2-0.8-0.5-1l-2.6-2.1
			c-0.6-0.5-1.5-0.4-2,0.1c-2.6,2.7-4.9,4.5-6.7,5.4c-1.7,0.9-3.5,1.3-5.4,1.3c-2.2,0-4.1-0.5-5.8-1.6c-1.7-1.1-3.1-2.8-4.1-5.2
			c-1.1-2.4-1.6-5.2-1.6-8.4c0-0.4,0-0.8,0-1.4H87c0.4,0,0.8-0.2,1.1-0.5c0.3-0.3,0.4-0.7,0.4-1.1c-0.1-2.3-0.3-4.1-0.7-5.6
			c-0.7-2.5-1.9-4.8-3.5-6.7c-1.6-2-3.6-3.5-5.9-4.5c-2.3-1-5-1.5-8-1.5c-4.1,0-7.8,0.9-10.9,2.8c-3.1,1.8-5.6,4.4-7.4,7.6
			c-1.7,3.2-2.6,7.1-2.6,11.5c0,4.3,0.9,8,2.7,11.2c1.8,3.2,4.4,5.8,7.8,7.8c3,1.7,6.6,2.6,10.7,2.6c0.1,0,0.3,0,0.4,0
			c0,0,0.1,0,0.1,0h33.8h3.1H135l-2.7-5.6L131.9,55.3z M63.1,28.3c0.8-1.1,1.9-1.9,3.1-2.5c1.3-0.6,2.6-0.9,4.1-0.9
			c1.4,0,2.7,0.3,3.8,0.9c1.1,0.6,1.9,1.3,2.5,2.3c0.4,0.7,0.8,1.8,1.2,3.1H61.5C62,30,62.5,29,63.1,28.3z"/>
	</g>
	<g>
		<path class="st4" d="M150.4,51.5c0.4,0.8,0.8,1.5,1.2,2.2c0.4,0.7,0.8,1.5,1.1,2.2c0.3,0.7,0.7,1.3,1.1,1.9
			c0.4,0.6,0.8,1.2,1.1,1.8c0.5,1,1.1,2,1.6,2.9c0.5,1,1.1,1.9,1.6,2.9c0,0,0,0.1,0.1,0.1c0,0,0.1,0.1,0.1,0.2c0-0.2,0-0.5,0-0.7
			c0-0.2,0-0.4,0-0.6c0.1-1.1,0.2-2.1,0.3-3.1c0.1-1,0.2-2.1,0.3-3.2c0.1-0.7,0.1-1.3,0.2-2c0.1-0.7,0.2-1.3,0.2-2
			c0.1-1.1,0.2-2.2,0.3-3.3c0.1-1.1,0.2-2.2,0.3-3.3c0.1-0.6,0.1-1.1,0.2-1.7c0.1-0.6,0.1-1.1,0.2-1.7c0.1-0.9,0.2-1.8,0.3-2.8
			c0.1-0.9,0.2-1.9,0.3-2.8c0-0.3,0.1-0.7,0.1-1c0.1-0.3,0.2-0.6,0.4-1c0.2-0.3,0.3-0.5,0.6-0.6c0.2-0.1,0.5-0.1,0.7,0
			c0.3,0.1,0.6,0.3,0.9,0.5c0.3,0.2,0.5,0.5,0.6,0.9c0.1,0.2,0.1,0.4,0.2,0.7c0,0.2,0,0.5-0.1,0.7c0,0,0,0.1,0,0.2
			c0,0.8,0,1.6,0,2.4c-0.1,0.8-0.1,1.6-0.1,2.3c0,0.5,0,1-0.1,1.5c0,0.5-0.1,1-0.1,1.4c-0.1,0.7-0.2,1.3-0.2,2
			c-0.1,0.6-0.2,1.3-0.2,1.9c-0.1,0.4-0.1,0.8-0.1,1.2c0,0.4-0.1,0.8-0.1,1.2c-0.1,0.9-0.2,1.8-0.3,2.6c-0.1,0.9-0.2,1.8-0.3,2.6
			c0,0.2-0.1,0.5-0.1,0.7c0,0.2,0,0.5,0,0.7c-0.1,1.2-0.2,2.4-0.2,3.6c-0.1,1.2-0.2,2.4-0.3,3.6c0,0.5-0.1,0.9-0.1,1.4
			c0,0.5,0,0.9-0.1,1.4c0,0.2-0.1,0.4-0.1,0.6c-0.1,0.2-0.1,0.4-0.2,0.6c0,0,0,0,0,0c-0.2,0.1-0.4,0.2-0.6,0.3
			c-0.2,0.1-0.4,0.2-0.6,0.3c-0.1,0-0.3,0-0.4,0c-0.2-0.1-0.3-0.1-0.4-0.2c-0.7-0.5-1.3-1.1-1.8-1.7c-0.5-0.6-1-1.3-1.4-2.1
			c-0.5-0.9-1.1-1.9-1.6-2.8c-0.5-0.9-1-1.8-1.6-2.8c-0.4-0.7-0.8-1.5-1.3-2.2c-0.4-0.7-0.9-1.5-1.3-2.2c-0.3-0.5-0.5-1-0.8-1.5
			c-0.2-0.5-0.5-1-0.7-1.5c-0.1-0.1-0.1-0.2-0.2-0.3c-0.1-0.1-0.1-0.2-0.2-0.3c0,0,0,0,0,0c0,0,0,0-0.1,0l-0.5,3.9
			c-0.1,0.6-0.2,1.2-0.3,1.8c-0.1,0.6-0.2,1.2-0.3,1.8c-0.1,0.7-0.2,1.5-0.3,2.2c-0.1,0.7-0.1,1.5,0,2.2c0,0.5,0,0.9-0.1,1.4
			c-0.1,0.4-0.2,0.9-0.4,1.3c-0.1,0.2-0.1,0.3-0.3,0.4c-0.1,0.1-0.3,0.3-0.4,0.4c-0.9,0.7-2,1-3.1,0.8c-0.3,0-0.5-0.1-0.7-0.3
			c-0.3-0.2-0.5-0.4-0.8-0.7c-0.2-0.2-0.4-0.5-0.6-0.8c-0.7-0.9-1.2-1.8-1.7-2.8c-0.5-1-1-2-1.4-3l-3.7-7.7c-0.5-1.1-1-2.2-1.6-3.3
			c-0.5-1.1-1.1-2.2-1.6-3.3c-0.4-0.9-0.6-1.8-0.5-2.8c0-0.2,0.2-0.4,0.4-0.5c0.2-0.1,0.5-0.2,0.7-0.1c1.2,0.2,2.2,0.8,2.9,1.8
			c0.3,0.4,0.6,0.8,0.9,1.3c0.3,0.4,0.6,0.9,0.8,1.3c0.6,1.1,1.3,2.1,1.9,3.2c0.6,1.1,1.2,2.1,1.9,3.2c0.7,1.3,1.4,2.5,2.1,3.7
			c0.7,1.2,1.4,2.5,2.1,3.7c0.1,0.2,0.2,0.4,0.4,0.6c0.1-0.2,0.1-0.3,0.2-0.4c0.1-0.1,0.1-0.2,0.1-0.4c0.2-0.9,0.3-1.8,0.5-2.6
			c0.2-0.9,0.3-1.8,0.5-2.6c0.1-0.3,0.1-0.7,0.2-1c0.1-0.3,0.2-0.7,0.2-1c0.1-0.5,0.2-1,0.3-1.5c0.1-0.5,0.2-1,0.2-1.5
			c0-0.4,0.1-0.7,0.3-1c0.1-0.3,0.3-0.6,0.4-1c0.1-0.2,0.2-0.4,0.5-0.5c0.2-0.1,0.4-0.2,0.7-0.1c0.3,0.1,0.5,0.2,0.7,0.4
			c0.2,0.1,0.4,0.2,0.6,0.4C150.2,51.3,150.4,51.4,150.4,51.5z"/>
	</g>
	<g>
		<path class="st4" d="M177.2,60.5c-0.1,0.6-0.3,1.1-0.4,1.6c-0.1,0.5-0.3,1.1-0.4,1.6c-0.1,0.5-0.3,1-0.5,1.5
			c-0.2,0.5-0.5,1-0.7,1.4c-0.4,0.7-0.9,1.3-1.5,1.8c-0.6,0.5-1.3,0.7-2.2,0.8c-0.9,0.1-1.8,0-2.5-0.4c-0.7-0.3-1.4-0.9-2-1.6
			c-0.4-0.5-0.8-1.1-1-1.6c-0.3-0.6-0.5-1.2-0.7-1.8c-0.2-0.5-0.3-1-0.4-1.5c-0.1-0.5-0.2-1-0.3-1.5c-0.1-0.5-0.1-1-0.1-1.5
			c0-0.5,0-1,0-1.6c0.1-0.8,0.2-1.5,0.3-2.3c0.2-0.7,0.4-1.4,0.8-2.1c0.2-0.4,0.5-0.8,0.8-1.2c0.3-0.4,0.6-0.7,1-1
			c0.3-0.3,0.6-0.5,1-0.7c0.3-0.2,0.7-0.3,1.1-0.4c0.4-0.1,0.9-0.2,1.3-0.2c0.4,0,0.9,0.1,1.3,0.3c0.1,0.1,0.2,0.1,0.3,0.1
			c0.1,0,0.2,0.1,0.4,0.1c0.4,0.2,0.8,0.4,1.1,0.7c0.3,0.3,0.7,0.6,1,0.9c0.3,0.3,0.5,0.7,0.7,1.1c0.1,0.4,0.2,0.9,0.2,1.3
			c0,1.6-0.4,3-1.3,4.3c-0.3,0.4-0.5,0.8-0.8,1.1c-0.3,0.4-0.6,0.7-0.9,1c-0.5,0.5-1,0.9-1.5,1.2c-0.5,0.3-1.1,0.6-1.8,0.7
			c0,0-0.1,0-0.2,0.1c0.2,0.5,0.4,1,0.7,1.4c0.3,0.4,0.6,0.8,1,1.1c0.3,0.3,0.7,0.4,1.1,0.5c0.4,0.1,0.8,0.1,1.2,0
			c0.2,0,0.3-0.1,0.4-0.2c0.1-0.1,0.2-0.2,0.3-0.3c0.2-0.3,0.4-0.6,0.6-0.9c0.2-0.3,0.3-0.7,0.4-1c0.2-0.5,0.4-1,0.5-1.4
			c0.1-0.5,0.3-1,0.3-1.5c0.1-0.2,0.1-0.4,0.2-0.6c0.1-0.2,0.3-0.3,0.5-0.4c0.1,0,0.3,0,0.4,0c0.1,0,0.2,0.1,0.2,0.2
			C177.3,60.2,177.3,60.3,177.2,60.5z M168.8,62.2c0.2-0.1,0.3-0.1,0.4-0.1c0.1,0,0.2-0.1,0.4-0.1c0.4-0.2,0.8-0.4,1.1-0.7
			c0.3-0.3,0.7-0.6,0.9-0.9c0.2-0.3,0.5-0.5,0.7-0.8c0.2-0.3,0.4-0.5,0.6-0.8c0.4-0.6,0.7-1.2,0.9-1.8c0.2-0.6,0.2-1.3,0.2-2
			c0-0.3-0.1-0.6-0.2-0.9c-0.1-0.3-0.3-0.5-0.6-0.7c-0.5-0.4-1-0.6-1.5-0.6c-0.6,0-1.1,0.1-1.6,0.5c-0.4,0.3-0.8,0.7-1,1.1
			c-0.3,0.4-0.5,0.9-0.6,1.4c-0.2,0.9-0.3,1.7-0.3,2.6c0,0.5,0,1,0.1,1.5c0.1,0.5,0.1,1,0.3,1.4c0,0.1,0.1,0.3,0.1,0.4
			C168.7,61.9,168.8,62.1,168.8,62.2z"/>
	</g>
	<g>
		<path class="st4" d="M182.3,56.4c0-0.1,0-0.2,0-0.3c0-0.1,0-0.2,0-0.2c0.1-0.6,0.1-1.3,0.2-1.9c0.1-0.6,0.2-1.2,0.3-1.9
			c0.2-0.7,0.4-1.3,0.6-2c0.2-0.6,0.6-1.2,1-1.8c0.3-0.5,0.7-0.8,1.1-1.2c0.4-0.3,0.9-0.6,1.4-0.7c0.8-0.2,1.6-0.1,2.2,0.5
			c0.4,0.3,0.7,0.7,0.9,1.2c0.2,0.4,0.4,0.9,0.5,1.4c0.1,0.4,0.1,0.8,0.2,1.2c0,0.4,0,0.8,0,1.2c0,0.8-0.1,1.5-0.3,2.2
			c-0.2,0.7-0.4,1.5-0.6,2.2c-0.1,0.2-0.1,0.3-0.2,0.5c-0.1,0.2-0.1,0.3-0.2,0.5c-0.1,0.2-0.1,0.3-0.2,0.5c-0.1,0.2-0.1,0.3-0.2,0.5
			c-0.1,0.2-0.1,0.3-0.2,0.5c-0.1,0.2-0.2,0.3-0.2,0.5c-0.1,0.2-0.2,0.3-0.2,0.5c-0.1,0.2-0.2,0.3-0.2,0.5c-0.1,0.2-0.2,0.3-0.3,0.5
			c-0.1,0.2-0.2,0.3-0.3,0.5c-0.3,0.5-0.6,1-1,1.4c-0.3,0.5-0.7,0.9-1.1,1.4c-0.1,0.1-0.1,0.2-0.2,0.3c-0.1,0.1-0.1,0.2-0.2,0.3
			c0,0.1-0.1,0.2-0.1,0.3c0,0.1-0.1,0.2-0.1,0.3c-0.2,0.3-0.4,0.6-0.7,0.8c-0.3,0.2-0.6,0.4-0.9,0.6c-0.2,0.1-0.3,0.1-0.5,0.2
			c-0.2,0-0.3,0-0.5,0c-0.2,0-0.3-0.1-0.4-0.2c-0.1-0.1-0.2-0.2-0.3-0.4c-0.2-0.3-0.4-0.6-0.5-0.9c-0.1-0.3-0.2-0.6-0.3-1
			c-0.2-0.6-0.3-1.2-0.5-1.8c-0.2-0.6-0.3-1.2-0.5-1.8c-0.1-0.4-0.2-0.8-0.4-1.3c-0.1-0.4-0.2-0.8-0.4-1.3c-0.2-0.7-0.4-1.4-0.6-2
			c-0.2-0.7-0.4-1.3-0.6-2c-0.2-0.6-0.3-1.3-0.5-1.9c-0.1-0.6-0.3-1.3-0.5-1.9c-0.1-0.6-0.2-1.2-0.3-1.7c-0.1-0.6-0.2-1.2-0.2-1.8
			c-0.1-0.8-0.2-1.5-0.3-2.3c-0.1-0.8-0.2-1.5-0.4-2.3c0-0.1-0.1-0.3-0.1-0.4c0-0.1,0-0.2,0-0.4c0-0.3,0-0.5,0.1-0.7
			c0.1-0.2,0.3-0.4,0.5-0.6c0,0,0.1-0.1,0.1-0.1c0,0,0.1,0,0.2,0c0.3,0,0.6,0,0.8,0.1c0.2,0.1,0.4,0.3,0.6,0.5
			c0.2,0.2,0.3,0.5,0.5,0.7c0.2,0.2,0.3,0.5,0.4,0.7c0.2,0.3,0.3,0.7,0.4,1.1c0.1,0.4,0.2,0.7,0.3,1.1c0.1,0.3,0.2,0.6,0.2,0.9
			c0.1,0.3,0.1,0.6,0.2,0.9c0.1,0.6,0.3,1.2,0.4,1.8c0.1,0.6,0.3,1.2,0.4,1.8c0.1,0.3,0.1,0.6,0.2,0.8c0.1,0.3,0.2,0.6,0.2,0.8
			c0.1,0.3,0.2,0.7,0.3,1c0.1,0.3,0.2,0.7,0.3,1c0.1,0.4,0.2,0.8,0.3,1.1c0.1,0.4,0.2,0.7,0.3,1.1c0,0.1,0,0.2,0.1,0.3
			C182.2,56.2,182.2,56.3,182.3,56.4z M183.8,62.1L183.8,62.1C184,62,184,62,184,62c0.3-0.4,0.5-0.8,0.8-1.1
			c0.3-0.4,0.5-0.8,0.7-1.2c0,0,0-0.1,0-0.1c0.2-0.4,0.4-0.8,0.6-1.2c0.2-0.4,0.4-0.8,0.5-1.2c0.2-0.4,0.4-0.9,0.5-1.3
			c0.2-0.4,0.3-0.9,0.5-1.3c0.1-0.4,0.2-0.8,0.4-1.2c0.1-0.4,0.2-0.8,0.4-1.2c0.2-0.8,0.3-1.6,0.3-2.3c0-0.3,0-0.5-0.1-0.7
			c0-0.2-0.1-0.5-0.3-0.7c-0.1-0.1-0.1-0.1-0.2-0.2c-0.1,0-0.1-0.1-0.2-0.1c-0.5,0-0.8,0.2-1.2,0.5c-0.5,0.6-1,1.2-1.2,1.9
			c-0.2,0.5-0.4,1-0.5,1.5c-0.2,0.5-0.3,1-0.3,1.5c0,0.3-0.1,0.7-0.2,1c-0.1,0.3-0.1,0.7-0.2,1c-0.1,0.6-0.2,1.2-0.2,1.7
			c-0.1,0.6-0.1,1.2-0.2,1.7c0,0.3-0.1,0.7-0.1,1c0,0.3,0,0.7-0.1,1c0,0.2,0,0.3,0,0.5C183.8,61.8,183.8,61.9,183.8,62.1z"/>
	</g>
</g>
</svg>
